<svg xmlns="http://www.w3.org/2000/svg"
 width="20pt" height="20pt" viewBox="0 0 512.000000 512.000000"
 preserveAspectRatio="xMidYMid meet">
    <g transform="translate(0.000000,512.000000) scale(0.100000,-0.100000)" fill="#fff" stroke="#fff" stroke-width="100">
<path d="M4021 5104 c-82 -22 -149 -62 -216 -129 l-60 -61 -60 19 c-80 26
-227 28 -310 3 -233 -69 -405 -289 -405 -518 0 -43 -4 -58 -14 -58 -28 0 -174
-81 -220 -121 l-48 -42 -26 34 c-83 111 -224 219 -339 260 -83 30 -246 37
-333 14 -160 -41 -314 -161 -427 -331 l-35 -52 -43 33 c-37 28 -91 53 -153 71
-11 3 -13 52 -10 251 3 240 2 249 -19 289 -30 57 -103 119 -158 134 -95 27
-211 -9 -268 -82 l-25 -31 -15 29 c-38 73 -137 133 -218 134 -142 0 -246 -98
-257 -241 -4 -60 -7 -69 -21 -62 -30 15 -164 8 -198 -10 -121 -64 -175 -212
-120 -329 13 -29 79 -129 145 -223 l121 -169 -25 -31 c-67 -81 -112 -225 -100
-320 10 -76 19 -100 152 -384 68 -145 124 -268 124 -273 0 -4 -51 -8 -114 -8
-62 0 -128 -5 -147 -12 -67 -22 -118 -68 -151 -135 l-31 -64 6 -152 c34 -802
417 -1562 1005 -1997 l102 -75 0 -130 c0 -115 3 -136 24 -180 27 -58 65 -99
121 -129 l40 -21 1265 0 1265 0 40 22 c53 28 99 78 124 133 17 38 21 66 21
175 l0 130 103 75 c213 156 471 445 617 692 242 410 381 888 384 1328 1 174
-7 203 -80 274 -51 50 -108 66 -231 66 -57 0 -103 2 -103 4 0 2 19 31 41 65
63 94 92 186 97 309 5 117 -8 196 -45 288 l-25 61 48 59 c103 127 149 288 126
440 -27 171 -148 342 -290 409 l-62 30 6 55 c7 69 -15 179 -51 251 -36 70
-136 167 -205 200 -102 49 -216 61 -319 33z m196 -169 c145 -43 235 -190 203
-332 -24 -107 -24 -129 -1 -152 11 -11 39 -25 63 -31 117 -32 210 -109 261
-218 28 -60 32 -77 32 -157 0 -125 -36 -202 -137 -297 -84 -78 -88 -98 -40
-177 92 -148 98 -347 15 -490 -32 -55 -87 -116 -137 -153 l-39 -28 -463 0
-462 0 40 100 c31 76 46 101 62 105 11 3 104 18 205 35 151 24 188 33 207 51
45 42 25 120 -37 142 -9 3 -81 -6 -160 -19 -79 -13 -147 -24 -151 -24 -6 0
138 366 149 379 1 2 92 19 201 36 109 18 208 37 219 43 33 18 48 66 32 103
-23 56 -53 60 -218 33 -79 -14 -146 -22 -149 -20 -2 3 34 100 82 216 47 116
86 222 86 235 0 13 -11 36 -24 51 -28 34 -88 37 -116 7 -10 -10 -55 -108 -100
-218 -45 -110 -85 -206 -89 -213 -6 -10 -33 20 -96 104 -49 66 -96 124 -104
131 -54 42 -145 -22 -128 -89 4 -13 60 -97 126 -187 l120 -164 -15 -36 c-9
-20 -43 -105 -77 -188 -34 -84 -64 -153 -67 -153 -3 0 -41 50 -85 111 -44 61
-91 120 -104 130 -54 43 -131 5 -131 -64 0 -27 22 -64 116 -192 64 -88 118
-165 121 -171 2 -7 -19 -71 -48 -143 l-53 -131 -188 0 c-110 0 -188 4 -188 9
0 6 7 40 16 78 32 133 16 411 -36 632 -27 115 -75 259 -117 351 l-34 75 53 49
c59 55 146 100 224 116 81 17 89 31 89 168 0 110 2 121 31 182 96 199 328 279
524 180 93 -47 135 -39 171 33 40 80 123 148 204 168 49 11 88 10 142 -6z
m-3552 -177 c22 -19 42 -74 115 -313 48 -159 86 -293 84 -296 -4 -7 -154 -52
-158 -48 -9 13 -176 582 -176 599 0 30 53 80 84 80 14 0 37 -10 51 -22z m462
-42 c31 -27 30 -7 25 -313 l-2 -172 -54 -15 c-30 -9 -56 -16 -59 -16 -3 0 -17
38 -31 84 -22 71 -26 103 -26 207 1 68 5 144 9 169 15 77 82 104 138 56z
m-824 -238 c9 -7 54 -67 101 -132 69 -97 90 -135 111 -204 15 -46 23 -88 18
-92 -4 -4 -29 -14 -55 -23 l-46 -15 -115 161 c-144 203 -152 216 -143 250 14
56 86 87 129 55z m2009 -171 c258 -127 460 -547 497 -1032 11 -139 4 -228 -26
-322 l-17 -53 -119 0 c-119 0 -119 0 -113 23 4 12 12 50 19 85 50 273 -208
531 -484 484 -142 -25 -259 -112 -320 -240 -47 -97 -52 -234 -13 -336 5 -14
-7 -16 -115 -16 l-120 0 -21 68 c-28 91 -35 194 -21 337 43 439 217 824 439
971 83 56 151 75 254 71 76 -3 95 -7 160 -40z m-1005 -252 c29 -9 69 -31 94
-54 44 -38 44 -39 30 -72 -39 -98 -91 -278 -111 -384 -12 -66 -23 -129 -26
-141 -3 -16 -22 -26 -96 -48 -106 -32 -138 -55 -138 -101 0 -50 33 -85 80 -85
21 0 49 4 62 9 13 4 35 11 51 15 l27 6 0 -59 c0 -56 20 -186 35 -224 7 -16
-12 -17 -336 -15 l-343 3 -94 199 c-51 109 -92 199 -90 201 2 1 89 28 193 60
113 34 199 66 213 78 44 41 22 118 -41 140 -10 4 -112 -22 -230 -58 -155 -47
-214 -61 -219 -52 -14 20 -38 109 -38 137 0 84 65 192 139 229 20 11 187 65
371 121 184 56 340 103 345 105 24 8 75 4 122 -10z m899 -740 c60 -18 127 -72
157 -129 28 -54 30 -165 3 -216 -38 -73 -29 -70 -237 -70 l-188 0 -28 48 c-24
40 -28 58 -28 122 0 84 16 127 67 179 71 72 158 95 254 66z m2715 -614 c26
-26 29 -36 29 -93 0 -101 -20 -283 -45 -423 -115 -625 -471 -1213 -929 -1536
l-70 -49 -1347 0 -1348 0 -98 74 c-453 340 -784 896 -898 1511 -25 140 -45
322 -45 423 0 57 3 67 29 93 l29 29 2332 0 2332 0 29 -29z m-1081 -2372 c0
-98 -1 -101 -29 -130 l-29 -29 -1222 0 -1222 0 -29 29 c-28 29 -29 32 -29 130
l0 101 1280 0 1280 0 0 -101z"/>
</g>
</svg>
